<?xml version="1.0" encoding="utf-8"?>
<!-- Generator: Adobe Illustrator 17.0.0, SVG Export Plug-In . SVG Version: 6.00 Build 0)  -->
<!DOCTYPE svg PUBLIC "-//W3C//DTD SVG 1.1//EN" "http://www.w3.org/Graphics/SVG/1.1/DTD/svg11.dtd">
<svg version="1.1" id="Capa_1" xmlns="http://www.w3.org/2000/svg" xmlns:xlink="http://www.w3.org/1999/xlink" x="0px" y="0px"
	 width="16px" height="16px" viewBox="0 0 16 16" enable-background="new 0 0 16 16" xml:space="preserve">
<rect x="-0.5" y="-0.5" fill="#333333" stroke="#333333" stroke-miterlimit="10" width="16" height="16"/>
<g opacity="0.3">
	<g>
		<g>
			<g>
				<g>
					<path fill="#79A64D" d="M7.922,1.994c0.02-0.064,0.006-0.213-0.048-0.177L7.842,2.07L7.922,1.994z"/>
					<path fill="#79A64D" d="M7.534,1.577c-0.06,0.128-0.113,0.346-0.053,0.569c0.042-0.245,0.064-0.147,0.114-0.438
						C7.65,1.672,7.697,1.776,7.692,1.868c0.017-0.066,0.086,0.045,0.111-0.114C7.725,1.57,7.626,1.573,7.541,1.742
						C7.517,1.69,7.532,1.623,7.534,1.577z"/>
					<path fill="#79A64D" d="M2.477,3.969l0.048-0.012C2.505,3.955,2.489,3.96,2.477,3.969z"/>
					<path fill="#79A64D" d="M1.061,7.349C1.058,7.32,1.035,7.306,1.013,7.302C1.026,7.33,1.039,7.354,1.061,7.349z"/>
					<path fill="#79A64D" d="M0.726,7.984c0.008-0.015,0.014-0.026,0.02-0.039C0.723,7.96,0.709,7.975,0.726,7.984z"/>
					<path fill="#79A64D" d="M2.477,3.969L2.351,4C2.413,4.053,2.432,3.996,2.477,3.969z"/>
					<path fill="#79A64D" d="M6.879,2.25c0.015-0.014,0.026-0.038,0.034-0.069C6.9,2.193,6.887,2.204,6.874,2.212L6.879,2.25z"/>
					<path fill="#79A64D" d="M3.453,2.638l0.023-0.02C3.464,2.592,3.449,2.56,3.432,2.524L3.453,2.638z"/>
					<path fill="#79A64D" d="M4.479,1.871c-0.03,0.006,0.067,0.193,0.104,0.278C4.553,2.067,4.55,2.021,4.564,1.994
						C4.545,1.959,4.518,1.919,4.479,1.871z"/>
					<path fill="#79A64D" d="M6.45,1.467l0.026-0.039L6.45,1.467z"/>
					<path fill="#79A64D" d="M2.756,3.236C2.731,3.217,2.708,3.202,2.692,3.194C2.712,3.212,2.734,3.225,2.756,3.236z"/>
					<path fill="#79A64D" d="M10.548,2.625c0.004-0.014,0.007-0.024,0.01-0.036C10.548,2.608,10.542,2.621,10.548,2.625z"/>
					<polygon fill="#79A64D" points="9.463,1.44 9.482,1.43 9.486,1.312 					"/>
					<path fill="#79A64D" d="M0.565,9.235l0.003-0.006C0.541,9.2,0.547,9.218,0.565,9.235z"/>
					<path fill="#79A64D" d="M8.899,15.378c-0.15-0.173,0.168-0.261-0.047-0.448C8.883,15.009,8.725,15.274,8.899,15.378z"/>
					<path fill="#79A64D" d="M6.846,2.226C6.832,2.23,6.818,2.233,6.802,2.232C6.824,2.237,6.837,2.235,6.846,2.226z"/>
					<polygon fill="#79A64D" points="8.852,14.93 8.852,14.928 8.83,14.91 					"/>
					<path fill="#79A64D" d="M1.65,11.886c0.029-0.024,0.048-0.048,0.066-0.073C1.698,11.825,1.678,11.844,1.65,11.886z"/>
					<path fill="#79A64D" d="M1.128,9.852L1.116,9.907C1.128,9.883,1.13,9.866,1.128,9.852z"/>
					<path fill="#79A64D" d="M2.518,12.598c0.005,0.032-0.012,0.058,0.034,0.069c0.005-0.01,0.009-0.018,0.013-0.025
						C2.534,12.649,2.512,12.643,2.518,12.598z"/>
					<path fill="#79A64D" d="M3.277,13.396c0.005-0.017,0.009-0.03,0.013-0.045l-0.034-0.014L3.277,13.396z"/>
					<path fill="#79A64D" d="M12.471,3.97c0.04-0.048,0.089-0.094,0.138-0.138C12.49,3.925,12.382,3.848,12.471,3.97z"/>
					<path fill="#79A64D" d="M6.856,2.134c0.005,0.053,0.002,0.079-0.01,0.092l0.028-0.014C6.871,2.181,6.866,2.151,6.856,2.134z"/>
					<path fill="#79A64D" d="M3.828,11.573l0.061,0.126C3.881,11.655,3.858,11.61,3.828,11.573z"/>
					<path fill="#79A64D" d="M13.084,10.177l-0.015-0.04C13.061,10.147,13.064,10.16,13.084,10.177z"/>
					<path fill="#79A64D" d="M4.171,11.982c-0.034,0.068-0.044,0.115-0.042,0.153c0.016-0.008,0.03-0.014,0.05-0.029L4.171,11.982z"
						/>
					<path fill="#79A64D" d="M12.61,3.831l-0.002,0.002L12.61,3.831z"/>
					<path fill="#79A64D" d="M11.69,3.501c0.072,0.086,0.226-0.154,0.356-0.249c0.161,0.055-0.098,0.193-0.168,0.325
						c0.109,0.012,0.358-0.112,0.39-0.042c-0.032,0.033-0.037,0.055-0.09,0.078c0.23-0.055,0.186,0.222,0.482,0.166
						C12.644,3.8,12.627,3.817,12.61,3.831c0.105-0.094,0.221-0.175,0.307-0.227c0.037,0.052,0.21,0.009,0.069,0.127
						c-0.016-0.037-0.079,0-0.136,0.015l0.101,0.015c-0.19,0.189-0.123-0.029-0.284,0.076c0.133,0.058,0.398,0.079,0.386,0.201
						c-0.213,0.139-0.192-0.151-0.322,0.07l0.008-0.174c-0.287,0.303-0.02-0.088-0.336,0.222c0.025,0.189,0.224,0.1,0.234,0.305
						c0.145-0.026,0.181-0.107,0.326-0.132c0.35,0.151-0.482,0.453-0.102,0.501c0.175-0.017,0.483-0.113,0.376,0.087L12.95,4.971
						c0.036,0.182,0.432-0.04,0.312,0.214c-0.115-0.001-0.14-0.111-0.162-0.074c-0.17,0.19,0.183,0.034,0.214,0.132L13.076,5.34
						c0.094,0.179,0.339,0.346,0.427,0.568c-0.077,0.003-0.163-0.017-0.228,0.051c0.194,0.251,0.076,0.614-0.034,0.898l0.228,0.083
						c0,0.025-0.095,0.056-0.14,0.033c-0.074,0.116,0.14-0.008,0.23,0.036c0.021,0.062-0.119,0.094-0.188,0.061
						c0.208,0.17,0.443,0.532,0.207,0.746l-0.066-0.039c-0.088,0.158,0.464,0.18,0.248,0.327l-0.036-0.028
						c-0.131,0.326,0.031,0.726-0.32,0.927c0.319,0.107-0.178,0.29,0.232,0.402c-0.27,0.133-0.332,0.063-0.549,0.267
						c-0.039,0.058,0.234,0.179,0.252,0.28l-0.22-0.072l0.195,0.193l-0.277-0.035l0.033,0.098c0.022-0.026,0.116-0.029,0.177-0.001
						c0.071,0.169-0.254,0.235-0.37,0.183l0.035,0.344c-0.08-0.048-0.085-0.106-0.12-0.165c0.137,0.243-0.231-0.084-0.105,0.138
						c0.056,0.007,0.117,0.073,0.157,0.098c-0.158,0-0.234,0.14-0.24,0.278l-0.126-0.103c-0.114,0.178-0.182,0.417-0.338,0.605
						c0.113-0.021,0.321,0.161,0.293,0.237l-0.21-0.129c0.087,0.131,0.121-0.003,0.203,0.189c-0.083,0.058-0.255-0.127-0.284-0.217
						l-0.005,0.141c-0.06-0.042-0.073-0.087-0.141-0.151c0.086,0.135-0.301-0.016-0.144,0.209l-0.057-0.044
						c-0.137,0.195-0.184,0.3-0.322,0.441c0.138,0.16,0.047,0.174,0.11,0.344c-0.162,0.048-0.389,0.023-0.511,0.152
						c-0.035,0.168,0.075,0.171,0.101,0.31c-0.118-0.153-0.265-0.054-0.26-0.213c-0.171,0.127-0.215,0.159-0.382,0.43
						c0.063,0.055,0.11,0.068,0.125,0.134c-0.031,0.053-0.141-0.014-0.176-0.1l0.003-0.024c-0.075,0.195-0.287,0.191-0.496,0.114
						c-0.21-0.068-0.386-0.131-0.439,0.096l0.007-0.023l-0.182,0.277c-0.12,0.004,0.029-0.161-0.083-0.249
						c-0.178,0.412-0.414,0.059-0.598,0.287c-0.234-0.555-0.606,0.119-0.845-0.247l0.011,0.135c-0.061,0.124-0.07-0.085-0.11-0.12
						c0.002,0.104,0.06,0.127,0.021,0.196c-0.522,0.103-1.029-0.27-1.43-0.579c-0.155-0.086-0.328,0.62-0.449,0.25l0.154-0.211
						c-0.481,0.176-0.662-0.359-1.126-0.297c0.051-0.037,0.092-0.099,0.123-0.082c0.025-0.181-0.242-0.148-0.324-0.042
						c-0.035-0.052,0.067-0.117,0.084-0.201c0.006-0.135-0.288,0.055-0.211-0.114c0.013-0.027,0.053-0.032,0.072-0.033
						c-0.093,0.035-0.165-0.169-0.262,0.022c-0.042-0.165-0.27-0.105-0.274-0.267C3.9,12.26,4.031,11.895,3.785,12.098
						c0.252-0.227,0.05-0.376-0.131-0.345c0.097-0.043,0.033-0.128,0.165-0.191c-0.065-0.073-0.173-0.106-0.3,0.014
						c0.217-0.387-0.528-0.101-0.134-0.493c-0.29-0.166-0.537-0.365-0.745-0.583c0.313-0.131,0.179,0.26,0.49,0.09
						c-0.236-0.16-0.611-0.173-0.594-0.468c0.024-0.082,0.149-0.013,0.209-0.013C2.538,9.903,2.629,9.621,2.381,9.443
						c0.031-0.007,0.072,0.009,0.104,0.026C2.46,9.428,2.501,9.356,2.353,9.396l0.054,0.034c-0.194,0.128-0.511-0.077-0.63-0.067
						c0.44-0.006,0.076-0.266,0.64-0.239C2.385,9.099,2.31,9.073,2.209,9.098c0.025-0.052,0.083-0.075,0.203-0.049
						C2.315,8.898,2.158,8.98,2.147,8.826c0.074-0.009,0.105,0.018,0.194,0.022C2.19,8.792,2.038,8.727,2.087,8.589
						c0.045,0.004,0.102-0.016,0.105,0.022C2.154,8.398,1.754,8.246,1.893,7.988c0.316,0.076,0.116-0.084,0.397-0.09L2.22,7.767
						L2.079,7.813C2.096,7.699,1.903,7.58,2.005,7.485l0.106,0.097L2.08,7.359L1.962,7.473C1.83,7.337,1.608,7.452,1.702,7.296
						C1.726,7.333,1.717,7.17,1.887,7.131l0.001,0.001C1.805,7.059,1.719,6.98,1.796,6.9c0.09-0.007,0.303,0.074,0.363,0.069
						C1.92,6.866,2.146,6.689,1.93,6.561c0.05,0.038,0.192,0.072,0.224,0.072l-0.17-0.091C2.06,6.502,2.09,6.502,2.201,6.54
						c0.082-0.149-0.359-0.039-0.153-0.191c0.01,0.019,0.04,0.02,0.058,0.058c0.135-0.166-0.002-0.407,0.141-0.554
						c0.279,0.048,0.019,0.175,0.26,0.198c0.001-0.263-0.12-0.624,0.066-0.822l-0.05,0.028C2.187,5.043,2.788,5.179,2.683,4.978
						c0.011,0.043,0.173,0.145,0.138,0.116c0.148-0.11,0.05-0.374,0.129-0.648L3.012,4.53c0.14-0.026,0.213-0.177,0.319-0.233
						C3.272,4.209,3.325,4.169,3.185,4.106c0.648,0.119,0.184-0.743,0.781-0.58C3.94,3.55,3.961,3.647,3.983,3.629l0.134-0.234
						C3.989,3.276,4.024,3.337,3.893,3.27c-0.042-0.099-0.034-0.21,0.019-0.253C3.89,3.184,4.09,3.23,4.188,3.274
						c-0.04-0.036-0.063-0.093-0.1-0.132c0.297,0.153-0.198-0.289,0.078-0.25l0.047,0.079C4.24,2.889,4.221,2.748,4.297,2.718
						c0.14,0.143-0.005,0.126,0.088,0.263c0.067-0.082-0.046-0.443,0.154-0.322c-0.01,0.069-0.068,0.102-0.076,0.17
						c0.224,0.144,0.2,0.09,0.287,0.085L4.74,2.913L4.949,2.92L4.877,2.886c-0.152-0.512,0.184-0.21,0.182-0.6
						C5.053,2.66,5.121,2.466,5.213,2.674c0.068,0.034,0.158,0.065,0.17,0.131C5.373,2.602,5.56,2.871,5.546,2.573
						c0.034,0.064,0.079-0.036,0.136,0.141c0.07-0.096-0.073-0.109-0.102-0.193c0.06-0.298,0.471,0.165,0.577-0.233
						c0.153-0.197,0.124-0.447,0.291-0.629C6.542,1.752,6.46,1.935,6.46,1.935c0.13,0.078,0.194,0.014,0.28-0.071
						C6.732,1.928,6.764,1.979,6.81,2.056c0.074-0.027,0.004-0.267,0.129-0.173C6.935,1.966,6.934,2.097,6.912,2.181
						c0.078-0.075,0.147-0.22,0.236-0.296c0.043,0.123-0.032,0.198-0.052,0.284C7.193,2.101,7.355,2.024,7.37,1.819L7.291,1.756
						c0.04-0.014,0.039,0.17,0.015,0.21C7.232,2.133,7.163,1.911,7.147,1.839l0.064-0.054c-0.131-0.417-0.279,0.1-0.417,0.09
						l0.002-0.313l-0.099,0.27C6.65,1.755,6.59,1.588,6.654,1.534c-0.14-0.14-0.068,0.131-0.195-0.013
						C6.443,1.498,6.444,1.482,6.45,1.467L6.371,1.589C6.375,1.519,6.3,1.381,6.374,1.405C6.141,1.29,6.14,1.725,6.005,1.52
						l0.01-0.023C5.792,1.679,6.056,1.724,5.958,2.038L5.644,1.545l0.054,0.223C5.669,1.769,5.611,1.769,5.588,1.681
						C5.547,1.858,5.64,1.769,5.637,1.925C5.431,1.763,5.343,2.13,5.171,1.822c0.032,0.181,0.165,0.062,0.094,0.239
						C5.064,1.725,5.154,2.2,4.972,2.095c-0.06-0.198,0.092-0.159-0.098-0.261c0.092,0.34-0.245,0.05-0.309,0.16
						c0.131,0.239-0.14,0.208-0.243,0.368C4.273,2.267,3.964,2.41,3.784,2.45L3.761,2.41c0.142,0.24-0.017,0.304-0.073,0.426
						c-0.102-0.13-0.127-0.193-0.121-0.294l-0.09,0.077c0.035,0.085,0.038,0.144,0.001,0.216L3.365,2.66
						C3.25,2.772,3.289,3.04,3.042,3.07C3.174,3.211,3.53,3.351,3.478,3.571C3.401,3.505,3.266,3.384,3.273,3.317
						C3.267,3.336,3.295,3.424,3.24,3.419L3.167,3.234c-0.111,0.015,0.075,0.138,0.02,0.18C3.08,3.31,3.077,3.381,2.998,3.293
						c0.001-0.024,0.084-0.006,0.059-0.067c-0.07,0.044-0.197,0.06-0.301,0.01C2.823,3.287,2.903,3.37,2.88,3.429
						C2.791,3.555,2.713,3.352,2.597,3.373c0.054,0.096-0.091,0.106,0.078,0.249C2.646,3.656,2.561,3.597,2.503,3.573
						c0.025,0.124-0.216,0.311,0.03,0.381l0.025-0.006c0,0.006,0,0.009,0,0.016l0,0l0,0C2.562,4.277,2.139,4.32,2.103,4.605
						L2.04,4.568C2.04,4.745,1.921,4.894,2.013,5.06C1.993,5.098,1.842,5.094,1.771,5.039C1.766,5.168,1.837,5.211,1.645,5.312
						c-0.063-0.156-0.125-0.009-0.03-0.146C1.481,5.275,1.357,5.267,1.499,5.502c-0.16-0.124-0.259,0.029-0.228,0.12l0.16-0.059
						c0.001,0.089-0.036,0.152-0.073,0.218L1.134,5.663C0.743,5.9,1.46,6.361,0.897,6.475c0.146,0.119,0.17-0.142,0.347-0.023
						C1.161,6.578,0.786,6.663,0.786,6.713C0.627,6.901,1.125,6.964,1.01,7.159c0.091-0.017,0.329-0.008,0.397,0.149
						c-0.046,0.133-0.389,0.14-0.451,0.04c-0.004-0.036,0.026-0.05,0.056-0.046c-0.028-0.05-0.059-0.118-0.161-0.07l0.087,0.029
						C0.841,7.325,0.83,7.533,0.689,7.473c0.074,0.121,0.141,0.059,0.195-0.02C0.737,7.635,0.851,7.75,0.747,7.945
						c0.052-0.031,0.159-0.057,0.155-0.026C0.77,8.204,1.069,8.045,1.115,8.232C0.99,8.344,0.788,8.203,0.92,8.393
						c-0.08,0.124-0.233,0.039-0.31-0.008c0.188,0.173-0.08,0.352-0.1,0.466L0.428,8.758C0.476,8.814,0.48,8.862,0.484,8.912
						l0.171-0.075C0.63,8.897,0.635,8.946,0.561,8.954c0.122,0.044,0.29-0.078,0.459,0.015C0.938,9.054,1.139,9.174,0.908,9.237
						c0.055-0.246-0.232,0.064-0.291-0.133C0.65,9.139,0.654,9.187,0.629,9.25c-0.025,0.013-0.049,0-0.064-0.014
						C0.383,9.504,0.838,9.299,0.861,9.531C0.722,9.528,0.629,9.635,0.668,9.667C0.644,9.573,0.873,9.579,0.997,9.638
						C0.938,9.805,1.118,9.775,1.128,9.852L1.15,9.756c0.138-0.003,0.142,0.07,0.211,0.154C1.264,9.946,1.266,9.841,1.232,9.887
						c0.257,0.043-0.159,0.312,0.039,0.42c-0.064,0.099-0.235,0.085-0.274,0.169c0.217,0.118-0.111,0.255,0.081,0.393
						c0.149-0.12,0.107-0.11,0.308-0.049l-0.211-0.252l0.302,0.098c-0.025-0.088-0.163-0.146-0.151-0.21
						c0.165,0.04,0.12,0.045,0.247-0.047c-0.211,0.211,0.209,0.179,0.099,0.373l-0.41,0.169c-0.074,0.285,0.393,0.261,0.428,0.563
						l0.024-0.118c0.174-0.048,0.105,0.144,0.211,0.191c-0.133,0.066-0.152,0.144-0.212,0.227c0.092-0.061,0.095,0.196,0.357,0.061
						L1.97,12.093c0.077,0.236,0.511-0.032,0.602,0.163c-0.17,0.046-0.19,0.189-0.376,0.14c0.046,0.06,0.068,0.13,0.15,0.068
						c-0.045,0.092,0.286,0.036,0.219,0.177c0.07-0.017,0.195-0.109,0.236-0.039c-0.017,0.026-0.056,0.048-0.056,0.048
						c0.056-0.047,0.155,0.033,0.234-0.13c-0.104,0.235,0,0.357,0.113,0.458c0.128,0.087,0.256,0.162,0.198,0.374
						c0.157,0.068,0.334,0.154,0.452,0.238c-0.034,0.029-0.046,0.058-0.057,0.028c0.072,0.239,0.351-0.26,0.427,0.004
						c-0.05,0.269-0.166,0.029-0.164,0.149c-0.263,0.429,0.258,0.109,0.242,0.414L4.14,14.19c0.02,0.201,0.354-0.014,0.502,0.108
						c0,0-0.029,0.033-0.036,0.064c0.236-0.154,0.482-0.112,0.666-0.09c-0.126,0.148-0.113,0.053-0.162,0.246
						c0.084,0.011,0.105-0.289,0.27-0.275c0.007,0.111,0.084,0.231,0.024,0.429L5.25,14.635c-0.024,0.273,0.199,0.055,0.26,0.123
						l-0.051,0.106c0.25,0.04,0.344-0.239,0.579-0.143l0-0.093c0.209-0.24,0.066,0.193,0.253,0.024l-0.032,0.3
						c0.107-0.035,0.372-0.182,0.541-0.235c-0.127,0.21-0.344,0.299-0.489,0.377c0.087,0.042,0.316,0.053,0.391-0.092
						c-0.042,0.024-0.102,0.09-0.131,0.041c0.159-0.216,0.317-0.314,0.491-0.291c-0.103,0.566,0.447,0.192,0.559,0.65
						c0.337-0.151,0.667,0.071,1.069,0.009c-0.185-0.43,0.113-0.024,0.035-0.477c0.083-0.038,0.116-0.034,0.128-0.005l0.31,0.242
						c0.089,0.124-0.068,0.109-0.043,0.21c0.209,0.012,0.119,0.182,0.28,0.285c-0.059-0.157,0.026-0.233,0.151-0.213
						c0,0-0.202-0.157-0.203-0.166c0.215-0.306,0.324,0.307,0.544-0.011l-0.05,0.167c0.12-0.125,0.541-0.167,0.548-0.556
						c0.043,0.042,0.12,0.148,0.07,0.199c0.382-0.034,0.544-0.674,0.882-0.593l0.031,0.111c0.043-0.061-0.004-0.238,0.123-0.18
						c0.02,0.042,0.033,0.11,0.063,0.101c0.012-0.051,0.05-0.253,0.159-0.239l0.002,0.143c0.392-0.035,0.274-0.533,0.429-0.768
						c0.2,0.263,0.476,0.173,0.616,0.124l0.027,0.038c0.351-0.228,0.338-0.645,0.449-1.017c0.404,0.049,0.624-0.48,0.965-0.694
						c-0.078,0.018-0.213-0.146-0.211-0.218c0.098-0.041-0.088-0.32,0.168-0.157l-0.019,0.024c0.288,0.092,0.306-0.109,0.378-0.228
						l-0.342-0.2c0.335-0.027,0.415-0.261,0.437-0.48c0.009-0.228-0.001-0.427,0.273-0.442c-0.068-0.114-0.036-0.217-0.106-0.326
						l0.203,0.063c0.119-0.219,0.193-0.331,0.211-0.635l0.14,0.091c0.037-0.172-0.577-0.325-0.574-0.471l0.318,0.002
						c0.025-0.283,0.332-0.568,0.071-0.869c0.046,0.006,0.137,0.017,0.145,0.066c0.034-0.142,0.24-0.531-0.2-0.472
						c0.283-0.007,0.02-0.288-0.109-0.427l0.209,0.013c-0.269-0.113-0.344-0.112-0.432-0.278c0.024-0.042,0.164-0.048,0.115,0.01
						c0.098-0.145-0.206-0.09-0.109-0.263l0.138,0.049c0.004-0.142-0.066-0.125-0.227-0.185c-0.087-0.078,0.019-0.267,0.205-0.313
						c-0.117-0.004-0.281-0.059-0.238-0.147c0.069-0.022,0.117,0.002,0.141,0.014c0.106-0.259-0.288-0.305-0.123-0.5
						c0.067-0.017,0.099-0.034,0.117-0.051c0.039,0.187,0.047,0.34,0.029,0.328c0.19-0.031,0.2-0.192,0.481-0.113
						c-0.159-0.105-0.521-0.252-0.461-0.417c0.017-0.011,0.033-0.022,0.061-0.034l0.024,0.011c0.011-0.039-0.013-0.066-0.051-0.087
						c0.021-0.055,0.037-0.091,0.03-0.137c0.154-0.056,0.035-0.198,0.021-0.277c-0.202,0.062-0.197-0.044-0.338,0.094
						c0.011-0.016,0.028,0.007,0.051,0.054c0.009,0.01,0.016,0.022,0.03,0.026l-0.019,0c0.02,0.047,0.045,0.109,0.062,0.182
						c-0.115-0.035-0.22-0.071-0.131-0.182c-0.142-0.004-0.288-0.009-0.357-0.011c0.255-0.175,0.35-0.42,0.514-0.505
						c-0.188-0.192-0.274-0.518-0.69-0.499c-0.075-0.039,0.071-0.114,0.117-0.163c0.053,0.019,0.068,0.064,0.129,0.061
						c-0.152-0.083-0.212-0.351-0.472-0.254c0.038-0.208,0.268-0.03,0.127-0.219l0.089-0.011c0.084-0.313-0.184-0.399-0.415-0.474
						c-0.248-0.075-0.472-0.127-0.413-0.512c-0.001,0.048-0.005,0.075-0.035,0.109c-0.218-0.634-0.993-0.652-1.3-1.263
						c-0.12-0.143-0.217,0.007-0.361,0.089l0.058-0.222l-0.257,0.171c-0.272,0.109-0.237-0.667-0.64-0.392l0.006,0.156
						c-0.102-0.047-0.352,0.031-0.307-0.139c-0.016,0.026-0.059,0.151-0.089,0.065l0.013-0.118c0,0-0.29,0.162-0.287,0.17
						C9.799,1.173,10.071,0.8,9.754,0.763c-0.125,0.04-0.336,0.331-0.29,0.412C9.509,1.182,9.578,1.253,9.58,1.372L9.482,1.43
						C9.463,1.778,9.416,2.133,9.609,2.387L9.755,2.18L9.79,2.351L9.675,2.356c0.058,0.162,0.103,0.023,0.158-0.071
						c0.005,0.09,0.019,0.154,0.043,0.188l0.167-0.322c-0.001,0.139-0.088,0.259-0.012,0.349c0.081-0.143-0.023-0.315,0.095-0.397
						c0.046,0.169,0.004,0.293,0.102,0.172c-0.004,0.09-0.03,0.144-0.065,0.178c0.083-0.095,0.179-0.017,0.254-0.193
						c0.026,0.193,0.235,0.015,0.142,0.327c0.039-0.071,0.183-0.215,0.25-0.21c-0.232,0.339,0.212,0.091,0.022,0.485
						c0.202-0.289,0.32-0.046,0.529-0.136c-0.021,0.02-0.062,0.061-0.064,0.039c0.053,0.069,0.017,0.173,0.022,0.255
						c0.163-0.244,0.309-0.235,0.478-0.341c-0.086,0.294-0.251,0.241-0.383,0.486c0.136-0.204,0.268-0.087,0.365-0.266
						c-0.048,0.188,0,0.11-0.125,0.323c0.245-0.274,0.092-0.005,0.29-0.135c-0.035,0.205-0.21,0.269-0.051,0.273
						C11.849,3.481,11.69,3.501,11.69,3.501z M13.572,5.893l-0.004,0.001c-0.011-0.027-0.02-0.05-0.026-0.065
						C13.548,5.842,13.557,5.86,13.572,5.893z M13.635,6.168c0.001-0.035-0.007-0.077-0.018-0.121
						c0.069-0.024,0.145-0.028,0.147,0.001C13.714,6.042,13.686,6.116,13.635,6.168z M14.922,5.222
						c0.044,0.044,0.007,0.071-0.033,0.088c-0.008-0.023-0.024-0.049-0.048-0.082l-0.027,0.001
						C14.854,5.223,14.892,5.219,14.922,5.222z"/>
					<path fill="#79A64D" d="M14.628,5.202c-0.006-0.006-0.016-0.008-0.021-0.016c-0.014,0.016-0.027,0.03-0.037,0.042l0.069,0
						L14.628,5.202z"/>
					<path fill="#79A64D" d="M2.532,3.955L2.524,3.957c0.01,0.001,0.02,0.002,0.033,0.007C2.547,3.96,2.541,3.958,2.532,3.955z"/>
					<polygon fill="#79A64D" points="13.068,9.864 13.119,9.88 13.081,9.844 					"/>
					<path fill="#79A64D" d="M4.188,3.274c0.014,0.013,0.03,0.024,0.049,0.029C4.228,3.292,4.21,3.283,4.188,3.274z"/>
					<path fill="#79A64D" d="M4.749,2.914l0.122,0.019C4.814,2.915,4.777,2.912,4.749,2.914z"/>
					<path fill="#79A64D" d="M5.246,2.759C5.232,2.724,5.222,2.698,5.213,2.674L5.211,2.674L5.246,2.759z"/>
					<path fill="#79A64D" d="M2.485,9.469C2.488,9.475,2.492,9.481,2.5,9.485C2.552,9.516,2.528,9.492,2.485,9.469z"/>
					<path fill="#79A64D" d="M1.888,7.131c0.035,0.032,0.07,0.063,0.091,0.093C1.999,7.183,2.006,7.15,1.888,7.131z"/>
					<polygon fill="#79A64D" points="3.822,11.559 3.819,11.561 3.828,11.573 					"/>
					<path fill="#79A64D" d="M1.964,7.337c0.046-0.038,0.04-0.075,0.015-0.113C1.961,7.258,1.936,7.297,1.964,7.337z"/>
					<path fill="#79A64D" d="M7.321,2.222l0.025,0.006C7.344,2.215,7.344,2.203,7.345,2.194L7.321,2.222z"/>
					<path fill="#79A64D" d="M7.345,2.194l0.024-0.028C7.357,2.168,7.346,2.171,7.345,2.194z"/>
					<path fill="#79A64D" d="M7.419,2.108L7.369,2.167C7.388,2.165,7.412,2.169,7.419,2.108z"/>
					<path fill="#79A64D" d="M6.651,2.215l0.01,0.077C6.662,2.275,6.659,2.25,6.651,2.215z"/>
					<path fill="#79A64D" d="M6.465,2.299C6.516,2.301,6.619,2.42,6.669,2.353L6.662,2.292C6.66,2.412,6.477,2.16,6.465,2.299z"/>
					<path fill="#79A64D" d="M5.291,1.685L5.5,1.682C5.438,1.616,5.353,1.529,5.432,1.483C5.101,1.336,5.549,1.636,5.291,1.685z"/>
					<path fill="#79A64D" d="M4.701,1.869c0.076-0.085-0.057-0.104-0.074-0.147C4.601,1.821,4.597,1.845,4.701,1.869z"/>
					<path fill="#79A64D" d="M1.683,5.047L1.515,4.955C1.5,5.042,1.582,4.987,1.683,5.047z"/>
					<polygon fill="#79A64D" points="2.32,6.149 2.453,6.122 2.296,6.033 					"/>
					<polygon fill="#79A64D" points="0.867,6.231 0.851,6.188 0.877,6.343 					"/>
					<path fill="#79A64D" d="M2.999,13.404l0.143-0.188C3.07,13.211,2.875,13.393,2.999,13.404z"/>
					<path fill="#79A64D" d="M5.973,14.84c0,0.124,0.071,0.226,0.156,0.131C6.062,14.933,6.017,14.822,5.973,14.84z"/>
					<polygon fill="#79A64D" points="14.525,11.314 14.563,11.41 14.565,11.265 					"/>
				</g>
			</g>
		</g>
	</g>
</g>
<text transform="matrix(0.7501 0 0 1 4.3667 11.6329)" fill="#FFCC66" stroke="#42210B" stroke-width="0.25" stroke-miterlimit="10" font-family="'SegoeScript-Bold'" font-size="10.7005">Z</text>
</svg>
