<?xml version="1.0" encoding="utf-8"?>
<!-- Generator: Adobe Illustrator 17.0.0, SVG Export Plug-In . SVG Version: 6.00 Build 0)  -->
<!DOCTYPE svg PUBLIC "-//W3C//DTD SVG 1.1//EN" "http://www.w3.org/Graphics/SVG/1.1/DTD/svg11.dtd">
<svg version="1.1" xmlns="http://www.w3.org/2000/svg" xmlns:xlink="http://www.w3.org/1999/xlink" x="0px" y="0px" width="64px"
	 height="64px" viewBox="0 0 64 64" enable-background="new 0 0 64 64" xml:space="preserve">
<g id="Capa_3">
	<rect x="-0.5" y="0.5" fill="#333333" stroke="#333333" stroke-miterlimit="10" width="64" height="64"/>
</g>
<g id="fondo">
	<g>
		<g>
			<g>
				<g>
					<g>
						<path fill="#79A64D" d="M33.176,18.998c0.056-0.172,0.02-0.564-0.134-0.48l-0.1,0.666L33.176,18.998z"/>
						<path fill="#79A64D" d="M32.105,17.814c-0.175,0.328-0.355,0.9-0.209,1.502c0.148-0.643,0.202-0.379,0.369-1.143
							c0.154-0.083,0.279,0.201,0.259,0.446c0.051-0.172,0.242,0.136,0.318-0.283c-0.211-0.504-0.478-0.514-0.731-0.081
							C32.047,18.111,32.096,17.936,32.105,17.814z"/>
						<path fill="#79A64D" d="M16.945,21.44l0.13,0.003C17.027,21.424,16.984,21.425,16.945,21.44z"/>
						<path fill="#79A64D" d="M10.664,29.475c0.003-0.084-0.053-0.133-0.11-0.151C10.578,29.41,10.604,29.48,10.664,29.475z"/>
						<path fill="#79A64D" d="M9.684,31.279c0.024-0.042,0.036-0.077,0.053-0.114C9.673,31.206,9.636,31.25,9.684,31.279z"/>
						<path fill="#79A64D" d="M16.945,21.44l-0.34-0.011C16.716,21.615,16.811,21.477,16.945,21.44z"/>
						<path fill="#79A64D" d="M30.144,19.552c0.047-0.038,0.083-0.103,0.114-0.187c-0.039,0.033-0.077,0.061-0.117,0.083
							C30.142,19.483,30.143,19.514,30.144,19.552z"/>
						<path fill="#79A64D" d="M20.565,18.78l0.076-0.032c-0.008-0.078-0.023-0.17-0.044-0.272L20.565,18.78z"/>
						<path fill="#79A64D" d="M23.754,17.506c-0.081,0,0.058,0.546,0.103,0.789c-0.028-0.234-0.006-0.357,0.045-0.419
							C23.873,17.773,23.827,17.654,23.754,17.506z"/>
						<path fill="#79A64D" d="M29.172,17.364l0.083-0.087C29.234,17.303,29.196,17.33,29.172,17.364z"/>
						<path fill="#79A64D" d="M18.303,19.8c-0.046-0.069-0.094-0.127-0.127-0.158C18.211,19.703,18.255,19.755,18.303,19.8z"/>
						<path fill="#79A64D" d="M41.712,20.527c0.006-0.04,0.009-0.065,0.014-0.099C41.701,20.482,41.69,20.521,41.712,20.527z"/>
						<path fill="#79A64D" d="M38.332,17.521l0.052-0.029c0.003-0.107,0.007-0.211,0.01-0.315L38.332,17.521z"/>
						<path fill="#79A64D" d="M9.379,35.063c0.003-0.009,0.004-0.011,0.006-0.019C9.3,34.961,9.324,35.014,9.379,35.063z"/>
						<path fill="#79A64D" d="M35.093,48.263c-0.355-0.49,0.497-0.662-0.026-1.203C35.128,47.278,34.663,47.951,35.093,48.263z"/>
						<path fill="#79A64D" d="M30.057,19.487c-0.041,0.011-0.082,0.02-0.125,0.019C29.991,19.518,30.029,19.511,30.057,19.487z"/>
						<path fill="#79A64D" d="M35.067,47.06l0-0.005l-0.053-0.051C35.035,47.027,35.048,47.04,35.067,47.06z"/>
						<path fill="#79A64D" d="M14.085,41.851c0.055-0.084,0.082-0.16,0.107-0.234C14.154,41.661,14.12,41.724,14.085,41.851z"/>
						<path fill="#79A64D" d="M11.164,36.681l-0.004,0.163C11.179,36.772,11.172,36.723,11.164,36.681z"/>
						<path fill="#79A64D" d="M16.909,43.072c0.037,0.08,0.015,0.159,0.14,0.157c0.008-0.03,0.011-0.052,0.013-0.076
							C16.989,43.196,16.928,43.196,16.909,43.072z"/>
						<path fill="#79A64D" d="M19.502,44.561c0.005-0.045,0.001-0.083,0.002-0.125c-0.031-0.005-0.066-0.01-0.098-0.015
							L19.502,44.561z"/>
						<path fill="#79A64D" d="M48.357,22.908c0.061-0.156,0.145-0.314,0.233-0.466C48.369,22.778,48.032,22.673,48.357,22.908z"/>
						<path fill="#79A64D" d="M30.11,19.238c-0.001,0.142-0.016,0.215-0.053,0.249c0.03-0.01,0.057-0.024,0.084-0.039
							C30.14,19.364,30.134,19.285,30.11,19.238z"/>
						<path fill="#79A64D" d="M19.464,39.451c-0.009,0.008,0.28,0.27,0.28,0.27C19.683,39.618,19.572,39.53,19.464,39.451z"/>
						<path fill="#79A64D" d="M50.09,37.361l0.007-0.106C50.066,37.27,50.057,37.302,50.09,37.361z"/>
						<path fill="#79A64D" d="M20.764,40.236c-0.039,0.211-0.026,0.346,0.008,0.445c0.035-0.031,0.069-0.055,0.11-0.108
							L20.764,40.236z"/>
						<path fill="#79A64D" d="M48.594,22.437l-0.003,0.005L48.594,22.437z"/>
						<path fill="#79A64D" d="M45.875,22.318c0.281,0.17,0.461-0.573,0.717-0.917c0.478,0.017-0.078,0.574-0.136,0.972
							c0.305-0.052,0.846-0.563,0.988-0.415c-0.052,0.112-0.045,0.17-0.161,0.275c0.542-0.331,0.685,0.416,1.39,0.03
							c-0.021,0.068-0.05,0.125-0.08,0.173c0.187-0.326,0.41-0.631,0.583-0.834c0.139,0.103,0.545-0.147,0.288,0.269
							c-0.073-0.081-0.203,0.064-0.335,0.149l0.27-0.045c-0.323,0.638-0.339,0.026-0.659,0.427c0.386,0.036,1.085-0.124,1.161,0.196
							c-0.43,0.525-0.621-0.226-0.768,0.44l-0.126-0.448c-0.474,1.005-0.124-0.205-0.668,0.839c0.223,0.446,0.65,0.077,0.826,0.576
							c0.348-0.18,0.378-0.413,0.731-0.589c1.032,0.104-0.909,1.51,0.082,1.339c0.435-0.173,1.17-0.624,1.032-0.05L50.3,25.038
							c0.215,0.411,1.076-0.369,0.91,0.348c-0.307,0.072-0.411-0.202-0.452-0.09c-0.356,0.596,0.488-0.027,0.622,0.204l-0.567,0.377
							c0.185,0.183,0.428,0.358,0.676,0.555c0.243,0.198,0.538,0.396,0.681,0.666c-0.2,0.037-0.429,0.019-0.583,0.22
							c0.262,0.289,0.395,0.663,0.373,1.069c-0.032,0.411-0.132,0.818-0.277,1.189l0.613,0.176c0.002,0.065-0.248,0.154-0.369,0.103
							c-0.186,0.301,0.371-0.037,0.616,0.065c0.062,0.157-0.307,0.251-0.495,0.174c0.582,0.387,1.184,1.394,0.549,1.891
							l-0.166-0.094c-0.271,0.335,1.164,0.484,0.591,0.812l-0.099-0.08c-0.305,0.77-0.087,1.865-1.162,2.118
							c0.362,0.215,0.222,0.383,0.077,0.534c-0.147,0.152-0.248,0.309,0.256,0.616c-0.772,0.145-0.826-0.059-1.543,0.258
							c-0.147,0.107,0.446,0.635,0.404,0.901l-0.495-0.367l0.329,0.648l-0.669-0.333l-0.025,0.257
							c0.086-0.038,0.337,0.045,0.465,0.168c-0.031,0.441-0.894,0.332-1.12,0.112c0,0-0.039,0.236-0.077,0.472
							c-0.05,0.233-0.122,0.46-0.122,0.46c-0.155-0.194-0.111-0.345-0.141-0.528c0.109,0.738-0.501-0.425-0.4,0.252
							c0.133,0.07,0.225,0.291,0.301,0.39c-0.406-0.151-0.711,0.151-0.889,0.473l-0.21-0.371c-0.557,0.244-0.867,0.931-1.488,1.256
							c0.315,0.043,0.663,0.692,0.516,0.863l-0.411-0.513c0.093,0.413,0.316,0.097,0.332,0.662
							c-0.273,0.076-0.531-0.546-0.514-0.803l-0.156,0.357c-0.113-0.159-0.101-0.286-0.211-0.51
							c0.084,0.414-0.762-0.286-0.598,0.402l-0.107-0.163c-0.619,0.291-0.792,0.644-1.297,0.909
							c0.215,0.519-0.044,0.488-0.032,0.973c-0.481-0.01-1.066-0.224-1.537-0.019c-0.257,0.374,0.053,0.482,0.002,0.849
							c-0.191-0.477-0.671-0.275-0.527-0.706c-0.572,0.254-0.707,0.367-1.385,0.942c0.137,0.183,0.257,0.248,0.251,0.429
							c-0.124,0.116-0.381-0.129-0.419-0.373l0.025-0.06c-0.349,0.47-0.945,0.258-1.492,0.008c-0.553-0.248-1.045-0.467-1.314,0.121
							l0.031-0.059c0,0-0.162,0.169-0.324,0.338c-0.168,0.158-0.335,0.315-0.335,0.315c-0.352-0.054,0.157-0.403-0.133-0.692
							c-0.702,0.918-1.253,0.023-1.866,0.614c-0.57-1.504-1.806,0.196-2.487-0.826l0.03,0.357c-0.185,0.343-0.208-0.211-0.332-0.297
							c0.008,0.277,0.18,0.326,0.064,0.516c-0.378,0.092-0.764,0.109-1.147,0.052c-0.381-0.073-0.76-0.2-1.132-0.35
							c-0.752-0.274-1.45-0.754-2.152-1.025c-0.512-0.18-0.679,1.748-1.189,0.757l0.339-0.598c-1.282,0.533-2.17-0.594-3.407-0.318
							c0.113-0.119,0.182-0.304,0.279-0.263c-0.045-0.536-0.765-0.333-0.92,0.027c-0.141-0.105,0.096-0.343,0.075-0.566
							c-0.097-0.344-0.771,0.352-0.694-0.13c0.013-0.078,0.122-0.119,0.176-0.138c-0.235,0.164-0.585-0.351-0.697,0.217
							c-0.244-0.416-0.806-0.123-0.945-0.556c-0.491,0.453-0.439-0.606-0.939,0.122c0.478-0.769-0.217-0.98-0.673-0.755
							c0.217-0.18-0.019-0.363,0.271-0.621c-0.228-0.152-0.531-0.165-0.763,0.242c0.23-1.163-1.41,0.059-0.734-1.22
							c-0.951-0.144-1.704-0.496-2.387-0.927c0.711-0.558,0.64,0.556,1.313-0.109c-0.742-0.218-1.594-0.086-1.834-0.791
							c-0.005-0.214,0.385-0.136,0.545-0.18c-0.371-0.158-0.513-0.458-0.652-0.736c-0.135-0.282-0.334-0.521-0.641-0.708
							c0.078-0.032,0.184-0.009,0.268,0.018c-0.068-0.096,0.028-0.299-0.346-0.129l0.143,0.063c-0.47,0.433-1.325,0.019-1.637,0.086
							c1.183-0.204,0.039-0.704,1.573-0.858c-0.101-0.044-0.323-0.075-0.579,0.022c0.05-0.139,0.199-0.215,0.52-0.196
							c-0.298-0.329-0.691-0.082-0.77-0.465c0.195-0.041,0.287,0.018,0.523,0.002c-0.41-0.091-0.866-0.223-0.744-0.583
							c0.12,0.003,0.272-0.056,0.275,0.04c-0.046-0.271-0.32-0.48-0.544-0.729c-0.234-0.244-0.399-0.531-0.167-0.853
							c0.847,0.229,0.302-0.205,1.048-0.175l-0.199-0.338l-0.369,0.09c0.014-0.285-0.462-0.641-0.153-0.855l0.25,0.276l-0.011-0.572
							l-0.349,0.251c-0.303-0.395-0.93-0.169-0.628-0.554c0.056,0.111,0.077-0.335,0.552-0.36l0.002,0.002
							c-0.168-0.218-0.34-0.466-0.076-0.631c0.245,0.029,0.753,0.342,0.916,0.362c-0.514-0.364,0.069-0.736-0.4-1.191
							c0.106,0.129,0.457,0.304,0.539,0.321l-0.389-0.341c0.218-0.058,0.297-0.037,0.562,0.129c0.294-0.336-0.902-0.326-0.284-0.596
							c0.015,0.057,0.09,0.078,0.115,0.191c0.411-0.359,0.276-1.054,0.779-1.313c0.683,0.34-0.103,0.451,0.505,0.694
							c0.238-0.623,0.219-1.674,0.821-2.074l-0.146,0.036c-0.685-0.842,0.744,0.017,0.663-0.576
							c-0.014,0.117,0.309,0.512,0.247,0.41c0.463-0.178,0.527-0.839,0.95-1.528l0.087,0.274c0.375,0.035,0.677-0.329,1.003-0.388
							c-0.07-0.274,0.107-0.329-0.199-0.607c0.828,0.41,1.086,0.014,1.353-0.427c0.276-0.41,0.563-0.849,1.22-0.454
							c-0.09,0.048-0.112,0.321-0.04,0.286l0.539-0.54c-0.242-0.403-0.2-0.218-0.487-0.478c-0.032-0.295,0.078-0.575,0.254-0.641
							c-0.192,0.407,0.3,0.679,0.529,0.865c-0.077-0.122-0.093-0.283-0.16-0.412c0.673,0.616-0.296-0.883,0.412-0.57l0.063,0.236
							c0.138-0.189,0.196-0.558,0.423-0.574c0.268,0.468-0.111,0.313,0.033,0.729c0.257-0.142,0.207-1.172,0.649-0.746
							c-0.074,0.181-0.25,0.235-0.319,0.419c0.489,0.495,0.466,0.341,0.704,0.368l-0.025-0.007l0.56,0.12l-0.172-0.124
							c-0.064-1.435,0.634-0.484,0.877-1.489c-0.25,0.954,0.055,0.5,0.178,1.094c0.168,0.132,0.402,0.27,0.393,0.447
							c0.102-0.528,0.465,0.283,0.611-0.488c0.06,0.185,0.246-0.04,0.306,0.449c0.255-0.22-0.145-0.314-0.177-0.558
							c0.317-0.778,1.226,0.548,1.72-0.455c0.513-0.462,0.522-1.159,1.042-1.542c0.228,0.29-0.061,0.72-0.061,0.72
							c0.338,0.253,0.55,0.178,0.809-0.074c-0.039,0.175,0.036,0.312,0.144,0.521c0.217-0.074,0.078-0.722,0.404-0.467
							c-0.031,0.222-0.064,0.575-0.148,0.803c0.241-0.206,0.469-0.596,0.732-0.801c0.097,0.331-0.127,0.532-0.202,0.763
							c0.288-0.197,0.765-0.352,0.833-0.898l-0.212-0.184c0.113-0.031,0.085,0.459,0.009,0.56c-0.236,0.432-0.393-0.173-0.424-0.364
							l0.189-0.134c-0.289-1.142-0.787,0.261-1.178,0.231l0.083-0.845l-0.339,0.73c-0.11-0.206-0.226-0.661-0.038-0.806
							c-0.34-0.378-0.223,0.321-0.53-0.108c-0.037-0.068-0.029-0.109-0.008-0.145l-0.255,0.276c0.033-0.179-0.127-0.577,0.067-0.477
							c-0.592-0.419-0.739,0.751-1.03,0.154l0.035-0.058c-0.666,0.4,0.027,0.615-0.37,1.411l-0.634-1.419l0.047,0.612
							c-0.077-0.009-0.231-0.029-0.253-0.273c-0.189,0.457,0.099,0.252,0.021,0.666c-0.464-0.465-0.886,0.482-1.192-0.447
							c-0.014,0.481,0.415,0.268,0.123,0.671c-0.358-0.99-0.381,0.277-0.816-0.111c-0.045-0.545,0.337-0.344-0.111-0.731
							c0.045,0.918-0.677-0.02-0.903,0.237c0.199,0.699-0.491,0.474-0.86,0.846c-0.055-0.257-0.962-0.083-1.47-0.152l-0.033-0.118
							c0.192,0.714-0.276,0.752-0.519,1.013c-0.164-0.408-0.179-0.588-0.087-0.837l-0.292,0.121c0.025,0.24-0.012,0.398-0.159,0.563
							l-0.156-0.534c-0.374,0.217-0.479,0.955-1.127,0.866c0.218,0.463,1.022,1.086,0.702,1.624
							c-0.147-0.236-0.389-0.645-0.312-0.809c-0.026,0.053-0.043,0.277-0.183,0.215l-0.021-0.509
							c-0.311-0.073,0.069,0.396-0.118,0.447c-0.185-0.349-0.257-0.175-0.385-0.463c0.025-0.059,0.223,0.054,0.217-0.112
							c-0.227,0.038-0.567-0.022-0.795-0.237c0.128,0.185,0.263,0.462,0.151,0.589c-0.344,0.238-0.364-0.336-0.682-0.383
							c0.054,0.287-0.33,0.186-0.022,0.689c-0.106,0.06-0.274-0.161-0.401-0.271c-0.059,0.313-0.806,0.654-0.251,1.018l0.068,0.002
							c-0.001,0.016-0.011,0.024-0.014,0.042l0.001-0.001l-0.001,0.001c-0.221,0.877-1.39,0.576-1.755,1.266l-0.129-0.149
							c-0.166,0.448-0.629,0.714-0.516,1.245c-0.082,0.088-0.458-0.037-0.592-0.238c-0.117,0.344,0.029,0.512-0.536,0.645
							c-0.036-0.469-0.309-0.115,0.04-0.416c-0.416,0.203-0.75,0.074-0.601,0.795c-0.3-0.445-0.706-0.117-0.711,0.147l0.476-0.036
							c-0.08,0.233-0.236,0.37-0.395,0.515l-0.479-0.472c-0.627,0.141-0.556,0.73-0.505,1.21c0.052,0.491,0.054,0.861-0.703,0.914
							c0.317,0.416,0.508-0.327,0.909,0.114c-0.256,0.317-1.287,0.387-1.35,0.525c-0.557,0.47,0.672,0.837,0.302,1.357
							c0.248-0.018,0.869,0.102,0.992,0.56c-0.171,0.35-1.086,0.279-1.211-0.03c0.004-0.106,0.089-0.138,0.166-0.115
							c-0.053-0.154-0.108-0.362-0.398-0.255l0.217,0.113c-0.286,0.153-0.397,0.763-0.748,0.552c0.148,0.378,0.353,0.205,0.527-0.01
							c-0.489,0.495-0.122,0.876-0.415,1.441c0.138-0.088,0.422-0.151,0.413-0.061c-0.342,0.832,0.395,0.389,0.517,0.93
							c-0.339,0.322-0.872-0.092-0.528,0.469c-0.218,0.37-0.623,0.124-0.827-0.02c0.507,0.516-0.24,1.079-0.24,1.43
							c0,0-0.253-0.269-0.243-0.272c0.13,0.168,0.173,0.311,0.2,0.462l0.431-0.251c-0.045,0.183-0.014,0.329-0.208,0.364
							c0.344,0.11,0.746-0.278,1.236-0.041c-0.186,0.268,0.397,0.563-0.192,0.806c0.045-0.735-0.592,0.248-0.832-0.325
							c0.101,0.1,0.131,0.241,0.092,0.435c-0.062,0.045-0.132,0.011-0.178-0.027c-0.369,0.857,0.757,0.122,0.979,0.771
							c-0.367,0.035-0.573,0.385-0.458,0.471c-0.1-0.277,0.507-0.331,0.85-0.2c-0.095,0.513,0.363,0.359,0.415,0.577l0.024-0.29
							c0.358-0.065,0.379,0.152,0.625,0.345c-0.235,0.145-0.296-0.144-0.356-0.001c0.706-0.01-0.22,0.941,0.376,1.143
							c-0.101,0.311-0.561,0.363-0.603,0.619c0.665,0.202-0.074,0.749,0.567,0.997c0.289-0.414,0.185-0.358,0.781-0.331
							l-0.796-0.524c0,0,0.227,0.018,0.454,0.036c0.223,0.012,0.447,0.025,0.447,0.025c-0.145-0.21-0.57-0.273-0.595-0.447
							c0.481,0.001,0.362,0.039,0.622-0.276c-0.385,0.687,0.739,0.307,0.581,0.909l-0.94,0.716
							c-0.027,0.881,1.206,0.461,1.517,1.261l-0.029-0.334c0.414-0.254,0.37,0.33,0.704,0.351c-0.291,0.27-0.269,0.481-0.351,0.736
							c0.187-0.225,0.432,0.418,1.001-0.132l-0.069,0.631c0.362,0.602,1.274-0.441,1.657,0.019
							c-0.398,0.241-0.337,0.631-0.853,0.636c0.165,0.125,0.274,0.293,0.435,0.072c-0.042,0.274,0.76-0.107,0.699,0.311
							c0.166-0.095,0.417-0.431,0.588-0.289c-0.022,0.08-0.106,0.164-0.106,0.164c0.107-0.163,0.438-0.047,0.507-0.515
							c-0.124,1.368,1.463,0.782,1.454,1.922c0.452,0.068,0.964,0.201,1.335,0.319c-0.07,0.099-0.08,0.18-0.132,0.115
							c0.358,0.54,0.749-0.92,1.145-0.32c0.051,0.708-0.426,0.201-0.338,0.497c-0.399,1.237,0.749,0.115,0.873,0.968l-0.122,0.04
							c0.161,0.518,0.904-0.227,1.36,0.016c0,0-0.058,0.102-0.061,0.187c0.534-0.519,1.213-0.539,1.73-0.62
							c-0.271,0.457-0.282,0.209-0.32,0.731c0.231-0.019,0.147-0.818,0.599-0.858c0.068,0.303,0.316,0.613,0.236,1.16l-0.413-0.069
							c0.044,0.744,0.535,0.104,0.72,0.276l-0.094,0.298c0.654,0.059,0.817-0.746,1.472-0.567l-0.028-0.244
							c0.491-0.706,0.233,0.483,0.688-0.027l-0.008,0.799c0.275-0.134,0.957-0.63,1.399-0.742c-0.306,0.55-0.86,0.82-1.229,1.096
							c0.242,0.061,0.845,0.041,1.014-0.329c-0.106,0.066-0.254,0.245-0.336,0.115c0.376-0.585,0.788-0.851,1.26-0.79
							c-0.111,0.758,0.197,0.886,0.566,0.976c0.37,0.073,0.795,0.094,0.952,0.695c0.45-0.268,0.877-0.194,1.331-0.06
							c0.452,0.114,0.931,0.272,1.445,0.211c-0.407-1.177,0.297-0.044,0.18-1.263c0.227-0.086,0.316-0.069,0.341,0.009
							c0,0,0.187,0.176,0.375,0.352c0.191,0.165,0.381,0.331,0.381,0.331c0.198,0.338-0.205,0.291-0.164,0.563
							c0.532,0.042,0.259,0.495,0.64,0.784c-0.109-0.429,0.129-0.642,0.446-0.506l-0.476-0.519c0.658-0.72,0.741,0.957,1.414,0.241
							l-0.188,0.406c0.355-0.239,1.425-0.215,1.621-1.235c0.09,0.128,0.239,0.442,0.087,0.557c0.955,0.017,1.759-1.447,2.584-1.014
							l0.01,0.305c0.145-0.127,0.141-0.605,0.425-0.379c0.023,0.122,0.015,0.308,0.096,0.301c0.061-0.127,0.287-0.64,0.551-0.541
							l-0.087,0.38c0.981,0.088,1.068-1.169,1.659-1.646c0.308,0.825,1.077,0.826,1.468,0.822l0.037,0.119
							c1.037-0.326,1.351-1.429,2.019-2.183c0.492,0.263,0.994,0.08,1.507-0.174c0.513-0.256,1-0.652,1.576-0.729
							c-0.221-0.036-0.393-0.562-0.308-0.734c0.307,0.012,0.111-0.873,0.596-0.225l-0.073,0.043
							c0.636,0.496,0.884-0.001,1.187-0.241l-0.667-0.82c0.898,0.264,1.259-0.363,1.543-0.905c0.304-0.535,0.454-1.089,1.178-0.907
							c-0.065-0.359,0.118-0.605,0.04-0.948l0.465,0.322c0.504-0.512,0.73-0.824,1.039-1.659l0.277,0.338
							c0.283-0.452-1.229-1.272-1.1-1.66l0.837,0.181c0.333-0.755,1.213-1.534,0.647-2.518c0.121,0.032,0.365,0.095,0.365,0.243
							c0.096-0.395,0.716-1.622-0.45-1.508c0.376,0.014,0.417-0.224,0.308-0.502c-0.127-0.262-0.393-0.566-0.569-0.769l0.56,0.044
							c-0.727-0.334-0.92-0.327-1.141-0.798c0.056-0.121,0.435-0.141,0.306,0.027c0.247-0.418-0.561-0.249-0.325-0.744l0.376,0.131
							c-0.009-0.407-0.195-0.353-0.634-0.506c-0.239-0.209,0.015-0.754,0.49-0.92c-0.314,0.005-0.762-0.119-0.672-0.377
							c0.178-0.075,0.312-0.018,0.378,0.012c0.229-0.77-0.872-0.793-0.494-1.39c0.172-0.067,0.25-0.126,0.29-0.181
							c0.16,0.527,0.269,0.955,0.208,0.927c0.508-0.131,0.444-0.602,1.244-0.438c-0.494-0.275-1.486-0.595-1.397-1.085
							c0.04-0.038,0.079-0.075,0.148-0.119l0.069,0.023c0.018-0.117-0.065-0.185-0.181-0.232c0.021-0.162,0.041-0.27-0.008-0.4
							c0.369-0.216-0.011-0.585-0.089-0.805c-0.498,0.262-0.538-0.044-0.841,0.411c0.021-0.05,0.077,0.009,0.159,0.133
							c0.029,0.023,0.053,0.056,0.092,0.062l-0.051,0.007c0.075,0.126,0.164,0.295,0.26,0.49c-0.336-0.052-0.625-0.11-0.441-0.463
							c-0.366,0.048-0.749,0.099-0.939,0.124c0.596-0.605,0.644-1.318,1.023-1.642c-0.593-0.464-1.113-1.29-2.183-0.966
							c-0.217-0.061,0.109-0.364,0.189-0.525c0.152,0.017,0.216,0.136,0.372,0.089c-0.428-0.15-0.853-0.79-1.436-0.351
							c-0.082-0.575,0.673-0.276,0.136-0.672l0.221-0.094c-0.049-0.903-0.838-0.902-1.499-0.917
							c-0.702,0.006-1.33,0.062-1.521-0.972c0.039,0.124,0.053,0.195,0.006,0.31c-0.524-0.662-1.33-0.971-2.127-1.141
							c-0.789-0.233-1.545-0.395-2.161-1.116c-0.377-0.337-0.542,0.115-0.879,0.416l0.04-0.608l-0.59,0.594
							c-0.69,0.376-0.861-1.684-1.816-0.802l0.058,0.415c-0.281-0.108-0.928,0.141-0.842-0.32c-0.036,0.071-0.127,0.411-0.223,0.188
							l0.014-0.316l-0.738,0.514c-0.538-0.245,0.144-1.251-0.68-1.337c-0.317,0.113-0.871,0.896-0.754,1.11
							c0.12,0.019,0.305,0.206,0.312,0.523l-0.265,0.157c-0.049,0.93-0.213,1.878,0.373,2.547l0.424-0.557l0.121,0.455l-0.347,0.018
							c0.187,0.431,0.316,0.058,0.467-0.195c0.025,0.241,0.075,0.411,0.152,0.502l0.452-0.877c0.026,0.365-0.222,0.717,0.033,0.925
							c0.217-0.407-0.133-0.821,0.204-1.082c0.17,0.445,0.081,0.781,0.34,0.447c0.011,0.242-0.05,0.389-0.148,0.484
							c0.225-0.264,0.54-0.063,0.701-0.543c0.142,0.541,0.712-0.06,0.568,0.81c0.093-0.211,0.452-0.628,0.645-0.627
							c-0.512,0.974,0.671,0.196,0.356,1.286c0.213-0.441,0.456-0.503,0.709-0.507c0.244,0.019,0.496,0.094,0.778-0.098
							c-0.045,0.065-0.133,0.199-0.156,0.141c0.211,0.144,0.194,0.437,0.284,0.65c0.265-0.736,0.695-0.812,1.053-1.172
							c0.017,0.823-0.486,0.794-0.642,1.515c0.197-0.604,0.68-0.407,0.783-0.936c0.037,0.52,0.099,0.285-0.046,0.926
							c0.419-0.888,0.253-0.078,0.672-0.558c0.095,0.571-0.315,0.865,0.119,0.754C46.285,22.145,45.875,22.318,45.875,22.318z
							 M52.348,27.033c-0.005,0.002-0.011,0.004-0.011,0.004c-0.036-0.067-0.066-0.124-0.086-0.161
							C52.272,26.909,52.299,26.954,52.348,27.033z M52.587,27.731c-0.007-0.092-0.039-0.199-0.08-0.311
							c0.176-0.086,0.375-0.122,0.389-0.046C52.76,27.376,52.709,27.58,52.587,27.731z M55.59,24.675
							c0.136,0.109,0.057,0.202-0.041,0.267c-0.039-0.062-0.091-0.132-0.171-0.218c-0.021,0.004-0.047,0.008-0.07,0.012
							C55.412,24.705,55.51,24.678,55.59,24.675z"/>
						<path fill="#79A64D" d="M54.809,24.736c-0.02-0.014-0.046-0.015-0.062-0.038c-0.032,0.049-0.059,0.093-0.078,0.134
							c0.061-0.009,0.123-0.018,0.181-0.027L54.809,24.736z"/>
						<path fill="#79A64D" d="M17.097,21.443l-0.022,0c0.025,0.009,0.049,0.019,0.077,0.043
							C17.126,21.471,17.116,21.457,17.097,21.443z"/>
						<polygon fill="#79A64D" points="50.348,36.597 50.462,36.682 50.397,36.56 						"/>
						<path fill="#79A64D" d="M21.994,20.962c0.027,0.042,0.062,0.083,0.109,0.111C22.086,21.041,22.043,21.002,21.994,20.962z"/>
						<path fill="#79A64D" d="M23.798,20.414l0.316,0.11C23.969,20.45,23.872,20.425,23.798,20.414z"/>
						<path fill="#79A64D" d="M25.253,20.247c-0.009-0.099-0.023-0.172-0.037-0.239l-0.004-0.003L25.253,20.247z"/>
						<path fill="#79A64D" d="M14.544,35.013c0.008,0.014,0.021,0.026,0.039,0.033C14.72,35.101,14.656,35.051,14.544,35.013z"/>
						<path fill="#79A64D" d="M12.933,29.178c0.066,0.095,0.157,0.192,0.2,0.277C13.194,29.356,13.233,29.277,12.933,29.178z"/>
						<polygon fill="#79A64D" points="19.436,39.418 19.43,39.426 19.464,39.451 						"/>
						<path fill="#79A64D" d="M13.058,29.74c0.133-0.082,0.13-0.177,0.075-0.285C13.076,29.534,12.996,29.628,13.058,29.74z"/>
						<path fill="#79A64D" d="M31.422,19.49l0.07,0.021c-0.003-0.037-0.001-0.067,0.003-0.091L31.422,19.49z"/>
						<path fill="#79A64D" d="M31.495,19.42l0.073-0.069C31.533,19.352,31.502,19.358,31.495,19.42z"/>
						<path fill="#79A64D" d="M31.723,19.203l-0.155,0.148C31.624,19.35,31.694,19.365,31.723,19.203z"/>
						<path fill="#79A64D" d="M29.502,19.41l0.003,0.205C29.512,19.572,29.511,19.505,29.502,19.41z"/>
						<path fill="#79A64D" d="M28.934,19.537c0.143,0.016,0.402,0.391,0.574,0.241l-0.002-0.163
							C29.456,19.928,29.016,19.167,28.934,19.537z"/>
						<path fill="#79A64D" d="M26.002,17.528l0.545,0.035c-0.133-0.191-0.315-0.448-0.089-0.556
							C25.668,16.532,26.693,17.45,26.002,17.528z"/>
						<path fill="#79A64D" d="M24.331,17.62c0.246-0.184-0.089-0.303-0.109-0.425C24.1,17.441,24.074,17.501,24.331,17.62z"/>
						<path fill="#79A64D" d="M13.93,23.566l-0.352-0.372C13.471,23.417,13.721,23.33,13.93,23.566z"/>
						<polygon fill="#79A64D" points="14.625,26.899 14.995,26.932 14.663,26.593 						"/>
						<polygon fill="#79A64D" points="10.816,26.198 10.805,26.067 10.767,26.522 						"/>
						<path fill="#79A64D" d="M18.796,44.766l0.232-0.587C18.84,44.211,18.474,44.819,18.796,44.766z"/>
						<path fill="#79A64D" d="M27.356,46.944c0.038,0.326,0.251,0.567,0.45,0.287C27.618,47.155,27.467,46.88,27.356,46.944z"/>
						<path fill="#79A64D" d="M52.679,41.582l0.002,0.281c0,0,0.15-0.368,0.144-0.376L52.679,41.582z"/>
					</g>
				</g>
			</g>
		</g>
	</g>
</g>
<g id="texto1">
	<g>
		<g>
			<path fill="none" stroke="#000000" stroke-miterlimit="10" d="M-88,12.333"/>
		</g>
	</g>
	
		<text transform="matrix(0.9364 0 0 1 -1.688004e-004 36.0968)" fill="#FFCC66" stroke="#42210B" stroke-width="0.25" stroke-miterlimit="10" font-family="'SegoeScript-Bold'" font-size="16.496">ZenSoft</text>
</g>
</svg>
